<svg width="473" height="531" viewBox="0 0 473 531" fill="none" xmlns="http://www.w3.org/2000/svg">
<path d="M151.854 42.0007C151.854 42.0007 96.1822 13.3215 30.8103 1.51236M151.854 50.014C151.854 50.014 93.652 55.4968 28.2802 43.6877M151.854 57.6056C151.854 57.6056 93.652 101.89 28.2802 90.0806M151.854 64.3536C151.854 64.3536 93.652 146.596 28.2802 134.786M441.177 1.51236C441.177 1.51236 365.683 -4.39216 318.869 42.0007M444.551 44.953C444.551 44.953 386.771 20.9131 318.869 50.014M444.551 90.0806C444.551 90.0806 396.471 68.993 318.869 57.6056M444.551 135.63C444.551 135.63 371.588 120.447 318.869 64.3536M182.22 64.3536C182.22 64.3536 151.854 100.624 145.949 154.609M312.121 246.973C312.121 246.973 272.898 248.66 272.898 287.883M472.275 422.775C472.275 422.775 444.725 422.775 424.387 440.36M447.925 246.973C447.925 246.973 398.158 291.257 280.911 287.883M447.925 287.883C447.925 287.883 407.437 297.583 280.911 297.583M447.925 329.637C447.925 329.637 367.37 304.331 280.911 307.284M145.949 287.883C145.949 287.883 93.652 263.843 28.2802 252.034M145.949 297.583C145.949 297.583 93.652 309.392 28.2802 297.583M151.854 304.331C151.854 304.331 93.652 351.146 28.2802 339.337M160.289 307.284C160.289 307.284 93.652 397.117 28.2802 385.308M54.2754 440.35C54.2754 440.35 40.0254 439.875 1.55029 447.95M54.2754 447.95C54.2754 447.95 17.2253 452.7 1.55029 489.75M54.2754 454.125C54.2754 454.125 -2.72484 484.525 1.55029 530.125M303.686 357.894C303.686 357.894 272.898 351.146 272.898 301.379M472.275 460.3C472.275 460.3 448.05 453.65 424.387 448.9M472.275 494.025C472.275 494.025 433.325 472.65 424.387 456.975M469.9 529.65C469.9 529.65 420.5 488.325 416.225 456.975" stroke="black" stroke-width="1.68701" stroke-dasharray="3.37 5.9"/>
</svg>
